<mxfile host="app.diagrams.net" modified="2021-06-27T09:21:54.116Z" agent="5.0 (X11; Linux x86_64) AppleWebKit/537.36 (KHTML, like Gecko) Chrome/91.0.4472.114 Safari/537.36" etag="f8NrQcqahTODaslhT32i" version="14.8.1" type="github">
  <diagram id="C5RBs43oDa-KdzZeNtuy" name="Page-1">
    <mxGraphModel dx="1422" dy="771" grid="1" gridSize="10" guides="1" tooltips="1" connect="1" arrows="1" fold="1" page="1" pageScale="1" pageWidth="827" pageHeight="1169" math="0" shadow="0">
      <root>
        <mxCell id="WIyWlLk6GJQsqaUBKTNV-0" />
        <mxCell id="WIyWlLk6GJQsqaUBKTNV-1" parent="WIyWlLk6GJQsqaUBKTNV-0" />
        <mxCell id="WIyWlLk6GJQsqaUBKTNV-3" value="Create project template" style="rounded=1;whiteSpace=wrap;html=1;fontSize=12;glass=0;strokeWidth=1;shadow=0;" parent="WIyWlLk6GJQsqaUBKTNV-1" vertex="1">
          <mxGeometry x="70" y="10" width="1010" height="450" as="geometry" />
        </mxCell>
        <mxCell id="BU9wNtt-WaEXu6Fd0nmu-0" value="Mobile list" style="rounded=1;whiteSpace=wrap;html=1;" vertex="1" parent="WIyWlLk6GJQsqaUBKTNV-1">
          <mxGeometry x="110" y="150" width="120" height="290" as="geometry" />
        </mxCell>
        <mxCell id="BU9wNtt-WaEXu6Fd0nmu-1" value="Map" style="rounded=1;whiteSpace=wrap;html=1;" vertex="1" parent="WIyWlLk6GJQsqaUBKTNV-1">
          <mxGeometry x="240" y="120" width="830" height="320" as="geometry" />
        </mxCell>
        <mxCell id="BU9wNtt-WaEXu6Fd0nmu-2" value="HEADER" style="rounded=1;whiteSpace=wrap;html=1;" vertex="1" parent="WIyWlLk6GJQsqaUBKTNV-1">
          <mxGeometry x="120" y="40" width="930" height="60" as="geometry" />
        </mxCell>
        <mxCell id="BU9wNtt-WaEXu6Fd0nmu-3" value="Now" style="rounded=1;whiteSpace=wrap;html=1;" vertex="1" parent="WIyWlLk6GJQsqaUBKTNV-1">
          <mxGeometry x="110" y="110" width="50" height="30" as="geometry" />
        </mxCell>
        <mxCell id="BU9wNtt-WaEXu6Fd0nmu-4" value="History" style="rounded=1;whiteSpace=wrap;html=1;" vertex="1" parent="WIyWlLk6GJQsqaUBKTNV-1">
          <mxGeometry x="170" y="110" width="50" height="30" as="geometry" />
        </mxCell>
        <mxCell id="BU9wNtt-WaEXu6Fd0nmu-5" value="Map toolbar" style="rounded=1;whiteSpace=wrap;html=1;" vertex="1" parent="WIyWlLk6GJQsqaUBKTNV-1">
          <mxGeometry x="294" y="130" width="716" height="60" as="geometry" />
        </mxCell>
        <mxCell id="BU9wNtt-WaEXu6Fd0nmu-6" value="P&amp;amp;E table" style="rounded=1;whiteSpace=wrap;html=1;" vertex="1" parent="WIyWlLk6GJQsqaUBKTNV-1">
          <mxGeometry x="294" y="380" width="710" height="60" as="geometry" />
        </mxCell>
      </root>
    </mxGraphModel>
  </diagram>
</mxfile>
